<svg xmlns="http://www.w3.org/2000/svg" version="1.1" xmlns:xlink="http://www.w3.org/1999/xlink" width="512" height="512" x="0" y="0" viewBox="0 0 480.049 480.049" style="enable-background:new 0 0 512 512" xml:space="preserve" class=""><g><path d="M464.022 16.051h16v16h-16zM448.022.052h16v16h-16zM432.022 16.051h16v16h-16zM448.022 32.051h16v16h-16zM400.022 16.051h16v16h-16zM384.022 176.051h16v16h-16zM416.022 176.051h16v16h-16zM400.022 160.051h16v16h-16zM400.022 192.051h16v16h-16zM88.032 152.051h16v16h-16zM72.032 136.051h16v16h-16zM56.022 152.051h16v16h-16zM72.032 168.051h16v16h-16zM24.022 152.051h16v16h-16zM.027 48.051h16v16h-16zM32.022 48.051h16v16h-16zM16.022 32.051h16v16h-16zM16.022 64.051h16v16h-16zM112.032.052h16v16h-16zM430.644 375.973a23.946 23.946 0 0 0-22.618-15.922h-19.352l-28.648-50.128v-85.872c0-17.673-14.327-32-32-32v-104c1.623-46.978-35.144-86.377-82.122-88a84.709 84.709 0 0 0-5.878 0c-55.008 0-86.4 45.184-88 87.696 0 .104.056.2.056.304h-.056v104c-17.673 0-32 14.327-32 32v85.872l-28.648 50.128H72.027c-13.224-.027-23.966 10.67-23.994 23.894a23.945 23.945 0 0 0 15.922 22.61c-11.555 13.061-10.334 33.017 2.728 44.572a31.573 31.573 0 0 0 16.832 7.66l155.432 21.192c.72.094 1.448.094 2.168 0l155.432-21.192c17.292-2.259 29.479-18.108 27.22-35.4a31.573 31.573 0 0 0-7.66-16.832c12.459-4.43 18.968-18.122 14.537-30.582zM240.027 16.052c38-1.764 70.236 27.611 72 65.612.099 2.128.099 4.26 0 6.388h-16c-22.08-.026-39.974-17.92-40-40a8 8 0 0 0-13.656-5.656 129.075 129.075 0 0 1-73.448 36.72c4.399-35.948 34.887-62.989 71.104-63.064zm-16 184v-34.216a62.287 62.287 0 0 0 16 2.216 61.387 61.387 0 0 0 16-2.264v34.264a8 8 0 0 0 8 8h16v10.232l-40 13.336-40-13.336v-10.232h16a8 8 0 0 0 8-8zM177.563 93.804a144.8 144.8 0 0 0 64.8-29.864c7.065 23.756 28.88 40.062 53.664 40.112h3.488c-10 26.84-35.36 48-59.488 48-27.784 0-55.848-26.928-62.464-58.248zm94.464 98.248v-32.68a94.928 94.928 0 0 0 40-43.752v76.432h-40zm-104-76.408a94.167 94.167 0 0 0 40 43.776v32.632h-40v-76.408zm16 92.408v16a8 8 0 0 0 5.472 7.584v.008l48 16a7.95 7.95 0 0 0 5.064 0l48-16a8 8 0 0 0 5.464-7.592v-16h21.752l-36 144h-83.504l-36-144h21.752zm11.68 160h88.64l32.144 37.496-76.464 10.432-76.464-10.4 32.144-37.528zm-50.976 34.928-14.76-2.008 50.12-55.696 3.2 12.712-38.56 44.992zm152.096-44.992 3.2-12.712 50.12 55.696-14.792 2.008-38.528-44.992zm-232.8 26.064a8 8 0 0 1 8-8h24a8 8 0 0 0 6.944-4l32-56a7.995 7.995 0 0 0 1.056-4v-88a16 16 0 0 1 10.04-14.848l14.672 58.68 14.664 58.68-58.936 65.488h-44.44a8 8 0 0 1-8-8zm176 79.928L85.675 442.924c-8.638-1.141-14.715-9.068-13.574-17.706a15.776 15.776 0 0 1 15.71-13.71c.712 0 1.423.051 2.128.152l56.888 7.76 90.4 12.328 42.824 26.768-40.024 5.464zm154.352-21.056-89.552 12.216-41.832-26.144 70.176-9.6 56.88-7.76c8.633-1.211 16.612 4.806 17.823 13.439.103.734.154 1.475.153 2.217a15.841 15.841 0 0 1-13.648 15.632zm13.648-50.872h-44.44l-58.944-65.496 14.664-58.68 14.672-58.68a16 16 0 0 1 10.048 14.856v88a7.995 7.995 0 0 0 1.056 4l32 56a8 8 0 0 0 6.944 4h24a8 8 0 0 1 0 16z" fill="#f9d0d0" opacity="1" data-original="#000000"></path></g></svg>